<mxfile host="Electron" agent="Mozilla/5.0 (Windows NT 10.0; Win64; x64) AppleWebKit/537.36 (KHTML, like Gecko) draw.io/26.0.3 Chrome/130.0.6723.137 Electron/33.2.1 Safari/537.36" version="26.0.3">
  <diagram name="Page-1" id="ysor1QuEhC0PnvsUQq7M">
    <mxGraphModel dx="2045" dy="1803" grid="1" gridSize="10" guides="1" tooltips="1" connect="1" arrows="1" fold="1" page="1" pageScale="1" pageWidth="850" pageHeight="1100" math="0" shadow="0">
      <root>
        <mxCell id="0" />
        <mxCell id="1" parent="0" />
        <mxCell id="uVODMxCo-4y3Cvi6SzU6-1" value="INTEGER&lt;div&gt;PROCESSOR&lt;/div&gt;&lt;div&gt;UNIT&lt;/div&gt;" style="rounded=0;whiteSpace=wrap;html=1;" vertex="1" parent="1">
          <mxGeometry x="40" y="260" width="120" height="60" as="geometry" />
        </mxCell>
        <mxCell id="uVODMxCo-4y3Cvi6SzU6-2" value="CONTROL&lt;div&gt;PROGRAM&lt;/div&gt;&lt;div&gt;MEMORY UNIT&lt;/div&gt;" style="rounded=0;whiteSpace=wrap;html=1;" vertex="1" parent="1">
          <mxGeometry x="200" y="260" width="120" height="60" as="geometry" />
        </mxCell>
        <mxCell id="uVODMxCo-4y3Cvi6SzU6-3" value="TABLE&lt;div&gt;MEMORY&lt;/div&gt;" style="rounded=0;whiteSpace=wrap;html=1;" vertex="1" parent="1">
          <mxGeometry x="360" y="260" width="80" height="60" as="geometry" />
        </mxCell>
        <mxCell id="uVODMxCo-4y3Cvi6SzU6-4" value="MAIN&lt;div&gt;DATA&lt;/div&gt;" style="rounded=0;whiteSpace=wrap;html=1;" vertex="1" parent="1">
          <mxGeometry x="720" y="260" width="120" height="60" as="geometry" />
        </mxCell>
        <mxCell id="uVODMxCo-4y3Cvi6SzU6-7" value="FLOATING&lt;div&gt;POINT&lt;/div&gt;&lt;div&gt;SCRATCH&lt;/div&gt;&lt;div&gt;PAD&lt;/div&gt;&lt;div&gt;&lt;br&gt;&lt;/div&gt;&lt;div&gt;&lt;br&gt;&lt;/div&gt;" style="rounded=0;whiteSpace=wrap;html=1;" vertex="1" parent="1">
          <mxGeometry x="500" y="240" width="160" height="110" as="geometry" />
        </mxCell>
        <mxCell id="uVODMxCo-4y3Cvi6SzU6-5" value="X" style="rounded=0;whiteSpace=wrap;html=1;" vertex="1" parent="1">
          <mxGeometry x="510" y="300" width="40" height="40" as="geometry" />
        </mxCell>
        <mxCell id="uVODMxCo-4y3Cvi6SzU6-6" value="Y" style="rounded=0;whiteSpace=wrap;html=1;" vertex="1" parent="1">
          <mxGeometry x="610" y="300" width="40" height="40" as="geometry" />
        </mxCell>
        <mxCell id="uVODMxCo-4y3Cvi6SzU6-8" value="INTRA ELEMENT DATA DISTRIBUTION" style="rounded=0;whiteSpace=wrap;html=1;" vertex="1" parent="1">
          <mxGeometry x="40" y="520" width="400" height="40" as="geometry" />
        </mxCell>
        <mxCell id="uVODMxCo-4y3Cvi6SzU6-15" value="FLOATING&lt;div&gt;POINT&lt;/div&gt;&lt;div&gt;MULTIPLIER&lt;/div&gt;" style="text;html=1;align=center;verticalAlign=middle;whiteSpace=wrap;rounded=0;" vertex="1" parent="1">
          <mxGeometry x="190" y="620" width="80" height="50" as="geometry" />
        </mxCell>
        <mxCell id="uVODMxCo-4y3Cvi6SzU6-16" value="" style="group" vertex="1" connectable="0" parent="1">
          <mxGeometry x="115" y="600" width="100" height="60" as="geometry" />
        </mxCell>
        <mxCell id="uVODMxCo-4y3Cvi6SzU6-9" value="" style="triangle;whiteSpace=wrap;html=1;rotation=90;" vertex="1" parent="uVODMxCo-4y3Cvi6SzU6-16">
          <mxGeometry x="30" y="-30" width="40" height="100" as="geometry" />
        </mxCell>
        <mxCell id="uVODMxCo-4y3Cvi6SzU6-10" value="" style="rounded=0;whiteSpace=wrap;html=1;" vertex="1" parent="uVODMxCo-4y3Cvi6SzU6-16">
          <mxGeometry x="25" y="20" width="50" height="40" as="geometry" />
        </mxCell>
        <mxCell id="uVODMxCo-4y3Cvi6SzU6-20" value="" style="group" vertex="1" connectable="0" parent="1">
          <mxGeometry x="275" y="600" width="100" height="60" as="geometry" />
        </mxCell>
        <mxCell id="uVODMxCo-4y3Cvi6SzU6-18" value="" style="triangle;whiteSpace=wrap;html=1;rotation=90;" vertex="1" parent="uVODMxCo-4y3Cvi6SzU6-20">
          <mxGeometry x="30" y="-30" width="40" height="100" as="geometry" />
        </mxCell>
        <mxCell id="uVODMxCo-4y3Cvi6SzU6-19" value="" style="rounded=0;whiteSpace=wrap;html=1;" vertex="1" parent="uVODMxCo-4y3Cvi6SzU6-20">
          <mxGeometry x="25" y="20" width="50" height="40" as="geometry" />
        </mxCell>
        <mxCell id="uVODMxCo-4y3Cvi6SzU6-21" value="FLOATING&lt;div&gt;POINT&lt;/div&gt;&lt;div&gt;ADDER&lt;/div&gt;" style="text;html=1;align=center;verticalAlign=middle;whiteSpace=wrap;rounded=0;" vertex="1" parent="1">
          <mxGeometry x="350" y="620" width="80" height="50" as="geometry" />
        </mxCell>
        <mxCell id="uVODMxCo-4y3Cvi6SzU6-23" value="" style="endArrow=classic;html=1;rounded=0;" edge="1" parent="1">
          <mxGeometry width="50" height="50" relative="1" as="geometry">
            <mxPoint x="190" y="560" as="sourcePoint" />
            <mxPoint x="190" y="600" as="targetPoint" />
          </mxGeometry>
        </mxCell>
        <mxCell id="uVODMxCo-4y3Cvi6SzU6-24" value="" style="endArrow=classic;html=1;rounded=0;" edge="1" parent="1">
          <mxGeometry width="50" height="50" relative="1" as="geometry">
            <mxPoint x="140" y="560" as="sourcePoint" />
            <mxPoint x="140" y="600" as="targetPoint" />
          </mxGeometry>
        </mxCell>
        <mxCell id="uVODMxCo-4y3Cvi6SzU6-25" value="" style="endArrow=classic;html=1;rounded=0;" edge="1" parent="1">
          <mxGeometry width="50" height="50" relative="1" as="geometry">
            <mxPoint x="349.83000000000004" y="560" as="sourcePoint" />
            <mxPoint x="349.83000000000004" y="600" as="targetPoint" />
          </mxGeometry>
        </mxCell>
        <mxCell id="uVODMxCo-4y3Cvi6SzU6-26" value="" style="endArrow=classic;html=1;rounded=0;" edge="1" parent="1">
          <mxGeometry width="50" height="50" relative="1" as="geometry">
            <mxPoint x="299.83000000000004" y="560" as="sourcePoint" />
            <mxPoint x="299.83000000000004" y="600" as="targetPoint" />
          </mxGeometry>
        </mxCell>
        <mxCell id="uVODMxCo-4y3Cvi6SzU6-27" value="INTRA ELEMENT DATA DISTRIBUTION" style="rounded=0;whiteSpace=wrap;html=1;" vertex="1" parent="1">
          <mxGeometry x="40" y="700" width="400" height="40" as="geometry" />
        </mxCell>
        <mxCell id="uVODMxCo-4y3Cvi6SzU6-28" value="" style="endArrow=classic;html=1;rounded=0;" edge="1" parent="1">
          <mxGeometry width="50" height="50" relative="1" as="geometry">
            <mxPoint x="164.86" y="660" as="sourcePoint" />
            <mxPoint x="164.86" y="700" as="targetPoint" />
          </mxGeometry>
        </mxCell>
        <mxCell id="uVODMxCo-4y3Cvi6SzU6-29" value="" style="endArrow=classic;html=1;rounded=0;" edge="1" parent="1">
          <mxGeometry width="50" height="50" relative="1" as="geometry">
            <mxPoint x="324.58000000000004" y="660" as="sourcePoint" />
            <mxPoint x="324.58000000000004" y="700" as="targetPoint" />
          </mxGeometry>
        </mxCell>
        <mxCell id="uVODMxCo-4y3Cvi6SzU6-31" value="" style="shape=link;html=1;rounded=0;" edge="1" parent="1">
          <mxGeometry width="100" relative="1" as="geometry">
            <mxPoint x="760" y="200" as="sourcePoint" />
            <mxPoint x="760" y="400" as="targetPoint" />
            <Array as="points">
              <mxPoint y="200" />
              <mxPoint y="400" />
            </Array>
          </mxGeometry>
        </mxCell>
        <mxCell id="uVODMxCo-4y3Cvi6SzU6-32" value="" style="endArrow=classic;html=1;rounded=0;" edge="1" parent="1">
          <mxGeometry width="50" height="50" relative="1" as="geometry">
            <mxPoint x="99.58000000000001" y="320" as="sourcePoint" />
            <mxPoint x="99.58000000000001" y="400" as="targetPoint" />
          </mxGeometry>
        </mxCell>
        <mxCell id="uVODMxCo-4y3Cvi6SzU6-33" value="" style="endArrow=classic;html=1;rounded=0;" edge="1" parent="1">
          <mxGeometry width="50" height="50" relative="1" as="geometry">
            <mxPoint x="259.58000000000004" y="320" as="sourcePoint" />
            <mxPoint x="259.58000000000004" y="400" as="targetPoint" />
          </mxGeometry>
        </mxCell>
        <mxCell id="uVODMxCo-4y3Cvi6SzU6-34" value="" style="endArrow=classic;html=1;rounded=0;" edge="1" parent="1">
          <mxGeometry width="50" height="50" relative="1" as="geometry">
            <mxPoint x="399.58000000000004" y="320" as="sourcePoint" />
            <mxPoint x="399.58000000000004" y="400" as="targetPoint" />
          </mxGeometry>
        </mxCell>
        <mxCell id="uVODMxCo-4y3Cvi6SzU6-36" value="" style="endArrow=classic;html=1;rounded=0;exitX=1;exitY=0.5;exitDx=0;exitDy=0;" edge="1" parent="1" source="uVODMxCo-4y3Cvi6SzU6-6">
          <mxGeometry width="50" height="50" relative="1" as="geometry">
            <mxPoint x="680" y="320" as="sourcePoint" />
            <mxPoint x="680" y="400" as="targetPoint" />
            <Array as="points">
              <mxPoint x="680" y="320" />
            </Array>
          </mxGeometry>
        </mxCell>
        <mxCell id="uVODMxCo-4y3Cvi6SzU6-37" value="" style="endArrow=classic;html=1;rounded=0;exitX=0;exitY=0.5;exitDx=0;exitDy=0;" edge="1" parent="1" source="uVODMxCo-4y3Cvi6SzU6-5">
          <mxGeometry width="50" height="50" relative="1" as="geometry">
            <mxPoint x="480.00000000000006" y="320" as="sourcePoint" />
            <mxPoint x="480.00000000000006" y="400" as="targetPoint" />
            <Array as="points">
              <mxPoint x="480" y="320" />
            </Array>
          </mxGeometry>
        </mxCell>
        <mxCell id="uVODMxCo-4y3Cvi6SzU6-38" value="" style="endArrow=classic;html=1;rounded=0;" edge="1" parent="1">
          <mxGeometry width="50" height="50" relative="1" as="geometry">
            <mxPoint x="100" y="200" as="sourcePoint" />
            <mxPoint x="99.58000000000001" y="260" as="targetPoint" />
          </mxGeometry>
        </mxCell>
        <mxCell id="uVODMxCo-4y3Cvi6SzU6-39" value="" style="endArrow=classic;html=1;rounded=0;" edge="1" parent="1">
          <mxGeometry width="50" height="50" relative="1" as="geometry">
            <mxPoint x="230.13000000000005" y="200" as="sourcePoint" />
            <mxPoint x="229.71000000000004" y="260" as="targetPoint" />
          </mxGeometry>
        </mxCell>
        <mxCell id="uVODMxCo-4y3Cvi6SzU6-40" value="" style="endArrow=classic;html=1;rounded=0;" edge="1" parent="1">
          <mxGeometry width="50" height="50" relative="1" as="geometry">
            <mxPoint x="400.00000000000006" y="200" as="sourcePoint" />
            <mxPoint x="399.58000000000004" y="260" as="targetPoint" />
          </mxGeometry>
        </mxCell>
        <mxCell id="uVODMxCo-4y3Cvi6SzU6-41" value="" style="endArrow=classic;html=1;rounded=0;" edge="1" parent="1">
          <mxGeometry width="50" height="50" relative="1" as="geometry">
            <mxPoint x="540" y="200" as="sourcePoint" />
            <mxPoint x="540" y="300" as="targetPoint" />
          </mxGeometry>
        </mxCell>
        <mxCell id="uVODMxCo-4y3Cvi6SzU6-42" value="" style="endArrow=classic;html=1;rounded=0;" edge="1" parent="1">
          <mxGeometry width="50" height="50" relative="1" as="geometry">
            <mxPoint x="620" y="200" as="sourcePoint" />
            <mxPoint x="620" y="300" as="targetPoint" />
          </mxGeometry>
        </mxCell>
        <mxCell id="uVODMxCo-4y3Cvi6SzU6-43" value="" style="endArrow=classic;html=1;rounded=0;" edge="1" parent="1">
          <mxGeometry width="50" height="50" relative="1" as="geometry">
            <mxPoint x="750" y="320" as="sourcePoint" />
            <mxPoint x="750" y="400" as="targetPoint" />
          </mxGeometry>
        </mxCell>
        <mxCell id="uVODMxCo-4y3Cvi6SzU6-44" value="" style="endArrow=classic;html=1;rounded=0;" edge="1" parent="1">
          <mxGeometry width="50" height="50" relative="1" as="geometry">
            <mxPoint x="750.42" y="200" as="sourcePoint" />
            <mxPoint x="750" y="260" as="targetPoint" />
          </mxGeometry>
        </mxCell>
        <mxCell id="uVODMxCo-4y3Cvi6SzU6-45" value="" style="endArrow=classic;html=1;rounded=0;" edge="1" parent="1">
          <mxGeometry width="50" height="50" relative="1" as="geometry">
            <mxPoint x="320" y="400" as="sourcePoint" />
            <mxPoint x="320.00000000000006" y="520" as="targetPoint" />
          </mxGeometry>
        </mxCell>
        <mxCell id="uVODMxCo-4y3Cvi6SzU6-46" value="" style="endArrow=classic;html=1;rounded=0;exitX=0.5;exitY=1;exitDx=0;exitDy=0;" edge="1" parent="1" source="uVODMxCo-4y3Cvi6SzU6-5">
          <mxGeometry width="50" height="50" relative="1" as="geometry">
            <mxPoint x="530" y="380" as="sourcePoint" />
            <mxPoint x="340.00000000000006" y="520" as="targetPoint" />
            <Array as="points">
              <mxPoint x="530" y="440" />
              <mxPoint x="340" y="440" />
            </Array>
          </mxGeometry>
        </mxCell>
        <mxCell id="uVODMxCo-4y3Cvi6SzU6-47" value="" style="endArrow=classic;html=1;rounded=0;exitX=0.5;exitY=1;exitDx=0;exitDy=0;" edge="1" parent="1" source="uVODMxCo-4y3Cvi6SzU6-6">
          <mxGeometry width="50" height="50" relative="1" as="geometry">
            <mxPoint x="630" y="380" as="sourcePoint" />
            <mxPoint x="360.00000000000006" y="520" as="targetPoint" />
            <Array as="points">
              <mxPoint x="630" y="460" />
              <mxPoint x="360" y="460" />
            </Array>
          </mxGeometry>
        </mxCell>
        <mxCell id="uVODMxCo-4y3Cvi6SzU6-48" value="" style="endArrow=classic;html=1;rounded=0;exitX=0.5;exitY=1;exitDx=0;exitDy=0;" edge="1" parent="1" source="uVODMxCo-4y3Cvi6SzU6-4">
          <mxGeometry width="50" height="50" relative="1" as="geometry">
            <mxPoint x="760" y="450" as="sourcePoint" />
            <mxPoint x="380.00000000000006" y="520" as="targetPoint" />
            <Array as="points">
              <mxPoint x="780" y="480" />
              <mxPoint x="380" y="480" />
            </Array>
          </mxGeometry>
        </mxCell>
        <mxCell id="uVODMxCo-4y3Cvi6SzU6-49" value="" style="shape=link;html=1;rounded=0;" edge="1" parent="1">
          <mxGeometry width="100" relative="1" as="geometry">
            <mxPoint x="930" y="120" as="sourcePoint" />
            <mxPoint x="250" y="800" as="targetPoint" />
            <Array as="points">
              <mxPoint x="-80" y="120" />
              <mxPoint x="-80" y="800" />
            </Array>
          </mxGeometry>
        </mxCell>
        <mxCell id="uVODMxCo-4y3Cvi6SzU6-50" value="" style="endArrow=classic;html=1;rounded=0;" edge="1" parent="1">
          <mxGeometry width="50" height="50" relative="1" as="geometry">
            <mxPoint x="-80" y="480" as="sourcePoint" />
            <mxPoint x="120.00000000000006" y="520" as="targetPoint" />
            <Array as="points">
              <mxPoint x="120" y="480" />
            </Array>
          </mxGeometry>
        </mxCell>
        <mxCell id="uVODMxCo-4y3Cvi6SzU6-51" value="" style="endArrow=classic;html=1;rounded=0;" edge="1" parent="1">
          <mxGeometry width="50" height="50" relative="1" as="geometry">
            <mxPoint x="239.58" y="740" as="sourcePoint" />
            <mxPoint x="239.58" y="800" as="targetPoint" />
          </mxGeometry>
        </mxCell>
        <mxCell id="uVODMxCo-4y3Cvi6SzU6-52" value="" style="endArrow=classic;html=1;rounded=0;entryX=0.25;entryY=0;entryDx=0;entryDy=0;" edge="1" parent="1" target="uVODMxCo-4y3Cvi6SzU6-5">
          <mxGeometry width="50" height="50" relative="1" as="geometry">
            <mxPoint x="520" y="120" as="sourcePoint" />
            <mxPoint x="520" y="220" as="targetPoint" />
          </mxGeometry>
        </mxCell>
        <mxCell id="uVODMxCo-4y3Cvi6SzU6-53" value="" style="endArrow=classic;html=1;rounded=0;entryX=0.75;entryY=0;entryDx=0;entryDy=0;" edge="1" parent="1" target="uVODMxCo-4y3Cvi6SzU6-6">
          <mxGeometry width="50" height="50" relative="1" as="geometry">
            <mxPoint x="640" y="120" as="sourcePoint" />
            <mxPoint x="640" y="220" as="targetPoint" />
          </mxGeometry>
        </mxCell>
        <mxCell id="uVODMxCo-4y3Cvi6SzU6-54" value="IO&lt;div&gt;INTERFACE&lt;/div&gt;" style="rounded=0;whiteSpace=wrap;html=1;" vertex="1" parent="1">
          <mxGeometry x="790" y="520" width="140" height="40" as="geometry" />
        </mxCell>
        <mxCell id="uVODMxCo-4y3Cvi6SzU6-55" value="" style="endArrow=classic;html=1;rounded=0;" edge="1" parent="1">
          <mxGeometry width="50" height="50" relative="1" as="geometry">
            <mxPoint x="810" y="520" as="sourcePoint" />
            <mxPoint x="810" y="320" as="targetPoint" />
          </mxGeometry>
        </mxCell>
        <mxCell id="uVODMxCo-4y3Cvi6SzU6-56" value="" style="endArrow=classic;html=1;rounded=0;" edge="1" parent="1">
          <mxGeometry width="50" height="50" relative="1" as="geometry">
            <mxPoint x="910" y="120" as="sourcePoint" />
            <mxPoint x="910" y="520" as="targetPoint" />
          </mxGeometry>
        </mxCell>
        <mxCell id="uVODMxCo-4y3Cvi6SzU6-57" value="" style="endArrow=classic;html=1;rounded=0;exitX=1;exitY=0.5;exitDx=0;exitDy=0;" edge="1" parent="1" source="uVODMxCo-4y3Cvi6SzU6-4">
          <mxGeometry width="50" height="50" relative="1" as="geometry">
            <mxPoint x="860" y="120" as="sourcePoint" />
            <mxPoint x="860" y="520" as="targetPoint" />
            <Array as="points">
              <mxPoint x="860" y="290" />
            </Array>
          </mxGeometry>
        </mxCell>
        <mxCell id="uVODMxCo-4y3Cvi6SzU6-59" value="" style="endArrow=classic;html=1;rounded=0;" edge="1" parent="1">
          <mxGeometry width="50" height="50" relative="1" as="geometry">
            <mxPoint x="859.58" y="560" as="sourcePoint" />
            <mxPoint x="860" y="640" as="targetPoint" />
          </mxGeometry>
        </mxCell>
        <mxCell id="uVODMxCo-4y3Cvi6SzU6-60" value="" style="shape=link;html=1;rounded=0;" edge="1" parent="1">
          <mxGeometry width="100" relative="1" as="geometry">
            <mxPoint x="540" y="640" as="sourcePoint" />
            <mxPoint x="890" y="640" as="targetPoint" />
          </mxGeometry>
        </mxCell>
        <mxCell id="uVODMxCo-4y3Cvi6SzU6-62" value="TO IO&lt;div&gt;DEVICES&lt;/div&gt;" style="text;html=1;align=center;verticalAlign=middle;whiteSpace=wrap;rounded=0;" vertex="1" parent="1">
          <mxGeometry x="790" y="580" width="70" height="40" as="geometry" />
        </mxCell>
        <mxCell id="uVODMxCo-4y3Cvi6SzU6-63" value="DISPLAY" style="rounded=0;whiteSpace=wrap;html=1;" vertex="1" parent="1">
          <mxGeometry x="810" y="680" width="80" height="20" as="geometry" />
        </mxCell>
        <mxCell id="uVODMxCo-4y3Cvi6SzU6-64" value="DA" style="rounded=0;whiteSpace=wrap;html=1;" vertex="1" parent="1">
          <mxGeometry x="720" y="680" width="80" height="20" as="geometry" />
        </mxCell>
        <mxCell id="uVODMxCo-4y3Cvi6SzU6-65" value="A?" style="rounded=0;whiteSpace=wrap;html=1;" vertex="1" parent="1">
          <mxGeometry x="630" y="680" width="80" height="20" as="geometry" />
        </mxCell>
        <mxCell id="uVODMxCo-4y3Cvi6SzU6-66" value="CLOCK" style="rounded=0;whiteSpace=wrap;html=1;" vertex="1" parent="1">
          <mxGeometry x="540" y="680" width="80" height="20" as="geometry" />
        </mxCell>
        <mxCell id="uVODMxCo-4y3Cvi6SzU6-67" value="" style="endArrow=classic;startArrow=classic;html=1;rounded=0;" edge="1" parent="1">
          <mxGeometry width="50" height="50" relative="1" as="geometry">
            <mxPoint x="579.71" y="680" as="sourcePoint" />
            <mxPoint x="579.71" y="640" as="targetPoint" />
          </mxGeometry>
        </mxCell>
        <mxCell id="uVODMxCo-4y3Cvi6SzU6-68" value="" style="endArrow=classic;startArrow=classic;html=1;rounded=0;" edge="1" parent="1">
          <mxGeometry width="50" height="50" relative="1" as="geometry">
            <mxPoint x="669.71" y="680" as="sourcePoint" />
            <mxPoint x="669.71" y="640" as="targetPoint" />
          </mxGeometry>
        </mxCell>
        <mxCell id="uVODMxCo-4y3Cvi6SzU6-69" value="" style="endArrow=classic;startArrow=classic;html=1;rounded=0;" edge="1" parent="1">
          <mxGeometry width="50" height="50" relative="1" as="geometry">
            <mxPoint x="759.71" y="680" as="sourcePoint" />
            <mxPoint x="759.71" y="640" as="targetPoint" />
          </mxGeometry>
        </mxCell>
        <mxCell id="uVODMxCo-4y3Cvi6SzU6-70" value="" style="endArrow=classic;startArrow=classic;html=1;rounded=0;" edge="1" parent="1">
          <mxGeometry width="50" height="50" relative="1" as="geometry">
            <mxPoint x="849" y="680" as="sourcePoint" />
            <mxPoint x="849" y="640" as="targetPoint" />
          </mxGeometry>
        </mxCell>
        <mxCell id="uVODMxCo-4y3Cvi6SzU6-71" value="INTERRUPTS" style="rounded=0;whiteSpace=wrap;html=1;" vertex="1" parent="1">
          <mxGeometry x="230" y="60" width="120" height="20" as="geometry" />
        </mxCell>
        <mxCell id="uVODMxCo-4y3Cvi6SzU6-72" value="" style="endArrow=classic;html=1;rounded=0;" edge="1" parent="1">
          <mxGeometry width="50" height="50" relative="1" as="geometry">
            <mxPoint x="290" y="80" as="sourcePoint" />
            <mxPoint x="290.00000000000006" y="260" as="targetPoint" />
          </mxGeometry>
        </mxCell>
        <mxCell id="uVODMxCo-4y3Cvi6SzU6-73" value="" style="endArrow=classic;startArrow=classic;html=1;rounded=0;" edge="1" parent="1">
          <mxGeometry width="50" height="50" relative="1" as="geometry">
            <mxPoint x="459.58" y="200" as="sourcePoint" />
            <mxPoint x="459.58" y="80" as="targetPoint" />
          </mxGeometry>
        </mxCell>
        <mxCell id="uVODMxCo-4y3Cvi6SzU6-74" value="INTER&lt;div&gt;PROCESSOR&lt;/div&gt;&lt;div&gt;INTERFACE&lt;/div&gt;" style="rounded=0;whiteSpace=wrap;html=1;" vertex="1" parent="1">
          <mxGeometry x="400" y="20" width="120" height="60" as="geometry" />
        </mxCell>
        <mxCell id="uVODMxCo-4y3Cvi6SzU6-75" value="INPUT&lt;div&gt;OUTPUT&lt;/div&gt;" style="rounded=0;whiteSpace=wrap;html=1;" vertex="1" parent="1">
          <mxGeometry x="400" y="-70" width="60" height="50" as="geometry" />
        </mxCell>
        <mxCell id="uVODMxCo-4y3Cvi6SzU6-76" value="DIRECT&lt;div&gt;MEMORY&lt;/div&gt;&lt;div&gt;ACCESS&lt;/div&gt;" style="rounded=0;whiteSpace=wrap;html=1;" vertex="1" parent="1">
          <mxGeometry x="460" y="-70" width="60" height="50" as="geometry" />
        </mxCell>
        <mxCell id="uVODMxCo-4y3Cvi6SzU6-77" value="HOST CPU" style="rounded=0;whiteSpace=wrap;html=1;" vertex="1" parent="1">
          <mxGeometry x="400" y="-90" width="120" height="20" as="geometry" />
        </mxCell>
        <mxCell id="uVODMxCo-4y3Cvi6SzU6-78" value="" style="endArrow=classic;startArrow=classic;html=1;rounded=0;" edge="1" parent="1">
          <mxGeometry width="50" height="50" relative="1" as="geometry">
            <mxPoint x="430" y="20" as="sourcePoint" />
            <mxPoint x="430" y="-20" as="targetPoint" />
          </mxGeometry>
        </mxCell>
        <mxCell id="uVODMxCo-4y3Cvi6SzU6-79" value="" style="endArrow=classic;startArrow=classic;html=1;rounded=0;" edge="1" parent="1">
          <mxGeometry width="50" height="50" relative="1" as="geometry">
            <mxPoint x="489.58" y="20" as="sourcePoint" />
            <mxPoint x="489.58" y="-20" as="targetPoint" />
          </mxGeometry>
        </mxCell>
        <mxCell id="uVODMxCo-4y3Cvi6SzU6-80" value="DATA PAD BUS" style="text;html=1;align=center;verticalAlign=middle;whiteSpace=wrap;rounded=0;" vertex="1" parent="1">
          <mxGeometry x="700" y="90" width="120" height="30" as="geometry" />
        </mxCell>
      </root>
    </mxGraphModel>
  </diagram>
</mxfile>
